<?xml version="1.0" encoding="UTF-8" ?>
<svg version="1.1" width="64" height="64" xmlns="http://www.w3.org/2000/svg" shape-rendering="crispEdges">
<rect x="0" y="0" width="2" height="2" fill="#5C5C9B" />
<rect x="34" y="0" width="2" height="2" fill="#5FCDE4" />
<rect x="38" y="0" width="2" height="2" fill="#5FCDE4" />
<rect x="36" y="2" width="2" height="2" fill="#FFFFFF" />
<rect x="34" y="4" width="2" height="2" fill="#5FCDE4" />
<rect x="38" y="4" width="2" height="2" fill="#5FCDE4" />
<rect x="52" y="4" width="2" height="2" fill="#5C5C9B" />
<rect x="6" y="6" width="2" height="2" fill="#FFFFFF" />
<rect x="10" y="6" width="2" height="2" fill="#FFFFFF" />
<rect x="8" y="8" width="2" height="2" fill="#FFFFFF" />
<rect x="6" y="10" width="2" height="2" fill="#FFFFFF" />
<rect x="10" y="10" width="2" height="2" fill="#FFFFFF" />
<rect x="26" y="10" width="2" height="2" fill="#5C5C9B" />
<rect x="46" y="12" width="2" height="2" fill="#AE7DB6" />
<rect x="44" y="14" width="2" height="2" fill="#AE7DB6" />
<rect x="46" y="14" width="2" height="2" fill="#AE7DB6" />
<rect x="48" y="14" width="2" height="2" fill="#AE7DB6" />
<rect x="62" y="14" width="2" height="2" fill="#5FCDE4" opacity="0.243137" />
<rect x="46" y="16" width="2" height="2" fill="#AE7DB6" />
<rect x="62" y="16" width="2" height="2" fill="#5FCDE4" opacity="0.400000" />
<rect x="0" y="18" width="2" height="2" fill="#5FCDE4" opacity="0.243137" />
<rect x="18" y="18" width="2" height="2" fill="#A25EAD" />
<rect x="60" y="18" width="2" height="2" fill="#5FCDE4" opacity="0.243137" />
<rect x="62" y="18" width="2" height="2" fill="#5FCDE4" opacity="0.631373" />
<rect x="0" y="20" width="2" height="2" fill="#5FCDE4" opacity="0.631373" />
<rect x="2" y="20" width="2" height="2" fill="#5FCDE4" opacity="0.400000" />
<rect x="4" y="20" width="2" height="2" fill="#5FCDE4" opacity="0.243137" />
<rect x="56" y="20" width="2" height="2" fill="#5FCDE4" opacity="0.243137" />
<rect x="58" y="20" width="2" height="2" fill="#5FCDE4" opacity="0.400000" />
<rect x="60" y="20" width="2" height="2" fill="#5FCDE4" opacity="0.631373" />
<rect x="62" y="20" width="2" height="2" fill="#FFFFFF" />
<rect x="0" y="22" width="2" height="2" fill="#5FCDE4" opacity="0.243137" />
<rect x="14" y="22" width="2" height="2" fill="#A25EAD" />
<rect x="18" y="22" width="2" height="2" fill="#A25EAD" />
<rect x="22" y="22" width="2" height="2" fill="#A25EAD" />
<rect x="60" y="22" width="2" height="2" fill="#5FCDE4" opacity="0.243137" />
<rect x="62" y="22" width="2" height="2" fill="#5FCDE4" opacity="0.631373" />
<rect x="62" y="24" width="2" height="2" fill="#5FCDE4" opacity="0.400000" />
<rect x="18" y="26" width="2" height="2" fill="#A25EAD" />
<rect x="44" y="26" width="2" height="2" fill="#A267AC" />
<rect x="62" y="26" width="2" height="2" fill="#5FCDE4" opacity="0.243137" />
<rect x="28" y="28" width="2" height="2" fill="#FFFFFF" />
<rect x="32" y="28" width="2" height="2" fill="#FFFFFF" />
<rect x="6" y="30" width="2" height="2" fill="#A25EAD" />
<rect x="30" y="30" width="2" height="2" fill="#FFFFFF" />
<rect x="28" y="32" width="2" height="2" fill="#FFFFFF" />
<rect x="32" y="32" width="2" height="2" fill="#FFFFFF" />
<rect x="2" y="34" width="2" height="2" fill="#A25EAD" />
<rect x="6" y="34" width="2" height="2" fill="#A25EAD" />
<rect x="10" y="34" width="2" height="2" fill="#A25EAD" />
<rect x="6" y="38" width="2" height="2" fill="#A25EAD" />
<rect x="16" y="40" width="2" height="2" fill="#5FCDE4" />
<rect x="14" y="42" width="2" height="2" fill="#5FCDE4" />
<rect x="16" y="42" width="2" height="2" fill="#FFFFFF" />
<rect x="18" y="42" width="2" height="2" fill="#5FCDE4" />
<rect x="38" y="42" width="2" height="2" fill="#D19EC2" />
<rect x="54" y="42" width="2" height="2" fill="#A267AC" />
<rect x="16" y="44" width="2" height="2" fill="#5FCDE4" />
<rect x="38" y="44" width="2" height="2" fill="#D193BE" />
<rect x="36" y="46" width="2" height="2" fill="#AD739B" />
<rect x="38" y="46" width="2" height="2" fill="#FFFFFF" />
<rect x="40" y="46" width="2" height="2" fill="#AD739B" />
<rect x="32" y="48" width="2" height="2" fill="#D19EC2" />
<rect x="34" y="48" width="2" height="2" fill="#D193BE" />
<rect x="36" y="48" width="2" height="2" fill="#FFFFFF" />
<rect x="38" y="48" width="2" height="2" fill="#FFFFFF" />
<rect x="40" y="48" width="2" height="2" fill="#FFFFFF" />
<rect x="42" y="48" width="2" height="2" fill="#D193BE" />
<rect x="44" y="48" width="2" height="2" fill="#D19EC2" />
<rect x="36" y="50" width="2" height="2" fill="#AD739B" />
<rect x="38" y="50" width="2" height="2" fill="#FFFFFF" />
<rect x="40" y="50" width="2" height="2" fill="#AD739B" />
<rect x="0" y="52" width="2" height="2" fill="#D19EC2" />
<rect x="38" y="52" width="2" height="2" fill="#D193BE" />
<rect x="2" y="54" width="2" height="2" fill="#D19EC2" />
<rect x="38" y="54" width="2" height="2" fill="#D19EC2" />
<rect x="62" y="54" width="2" height="2" fill="#D19EC2" />
<rect x="0" y="56" width="2" height="2" fill="#D19EC2" />
<rect x="24" y="56" width="2" height="2" fill="#A267AC" />
<rect x="58" y="62" width="2" height="2" fill="#5C5C9B" />
</svg>